<svg height="480pt" viewBox="0 -88 480 480" width="480pt" xmlns="http://www.w3.org/2000/svg"><path d="m472 0h-464c-4.417969 0-8 3.582031-8 8v288c0 4.417969 3.582031 8 8 8h464c4.417969 0 8-3.582031 8-8v-288c0-4.417969-3.582031-8-8-8zm-8 184h-168v-168h168zm-112 40h-16v-24h16zm-56-24h24v24h-24zm-280-184h264v272h-264zm280 224h56v48h-56zm168 48h-96v-88h96zm0 0"/><path d="m368 304h-16c-39.746094-.046875-71.953125-32.253906-72-72 .027344-26.5 21.5-47.972656 48-48 22.082031.027344 39.972656 17.917969 40 40v8c0 4.417969-3.582031 8-8 8h-32v-16h24c0-13.253906-10.746094-24-24-24-17.671875 0-32 14.328125-32 32 .035156 30.914062 25.085938 55.964844 56 56h16c52.996094-.058594 95.941406-43.003906 96-96-.109375-97.15625-78.84375-175.890625-176-176-150.152344.167969-271.832031 121.847656-272 272v8h-16v-8c.175781-158.984375 129.015625-287.824219 288-288 105.988281.125 191.875 86.011719 192 192-.066406 61.828125-50.171875 111.933594-112 112zm0 0" fill="#fdb62f"/></svg>